<svg xmlns="http://www.w3.org/2000/svg" viewBox="0 0 64 64">
  <rect width="64" height="64" rx="14" fill="#dc0000"/>
  <rect x="9" y="9" width="46" height="46" rx="10" fill="#111111" opacity="0.18"/>
  <path d="M39.7 41.5c-2.2 1.6-4.8 2.4-7.7 2.4-7.1 0-12.1-5-12.1-11.9S25 20.1 32.2 20.1c2.8 0 5.4.8 7.5 2.3l-3.1 5.1c-1.2-.9-2.6-1.4-4.2-1.4-3.4 0-5.7 2.4-5.7 5.9 0 3.4 2.3 5.8 5.7 5.8 1.7 0 3.2-.5 4.4-1.5l2.9 5.2Z" fill="#ffffff"/>
  <circle cx="48" cy="18" r="2.4" fill="#ffffff" opacity="0.82"/>
  <circle cx="48" cy="26" r="2.4" fill="#ffffff" opacity="0.82"/>
  <circle cx="48" cy="34" r="2.4" fill="#ffffff" opacity="0.82"/>
</svg>
